<?xml version="1.0" encoding="utf-8"?>
<!-- Generator: Adobe Illustrator 25.0.1, SVG Export Plug-In . SVG Version: 6.00 Build 0)  -->
<svg version="1.1" id="Слой_1" xmlns="http://www.w3.org/2000/svg" xmlns:xlink="http://www.w3.org/1999/xlink" x="0px" y="0px"
	 viewBox="0 0 1000 1000" style="enable-background:new 0 0 1000 1000;" xml:space="preserve">
<style type="text/css">
	.st0{fill:#6610E0;}
	.st1{fill:#FFFFFF;}
</style>
<g>
	<path class="st0" d="M177.8,999.5c-97.8,0-177.3-79.6-177.3-177.3V177.8C0.5,80.1,80.1,0.5,177.8,0.5h644.3
		c97.8,0,177.3,79.6,177.3,177.3v644.3c0,97.8-79.6,177.3-177.3,177.3H177.8z"/>
	<path d="M822.2,1c23.9,0,47,4.7,68.8,13.9c21.1,8.9,40,21.7,56.2,37.9c16.2,16.2,29,35.2,37.9,56.2c9.2,21.8,13.9,45,13.9,68.8
		v644.3c0,23.9-4.7,47-13.9,68.8c-8.9,21.1-21.7,40-37.9,56.2c-16.2,16.2-35.2,29-56.2,37.9c-21.8,9.2-45,13.9-68.8,13.9H177.8
		c-23.9,0-47-4.7-68.8-13.9c-21.1-8.9-40-21.7-56.2-37.9c-16.2-16.2-29-35.2-37.9-56.2C5.7,869.2,1,846,1,822.2V177.8
		c0-23.9,4.7-47,13.9-68.8c8.9-21.1,21.7-40,37.9-56.2C69,36.6,87.9,23.8,109,14.9C130.8,5.7,154,1,177.8,1H822.2 M822.2,0H177.8
		C79.6,0,0,79.6,0,177.8v644.3C0,920.4,79.6,1000,177.8,1000h644.3c98.2,0,177.8-79.6,177.8-177.8V177.8C1000,79.6,920.4,0,822.2,0
		L822.2,0z"/>
</g>
<g>
	<path class="st1" d="M561.4,311.6c-41.9,4.6-56.9,13.7-80.4,53.6c-23.5,40.5-43.8,76.5-75.9,141.9c-5.2,10.5-7.2,18.3-7.2,34.7
		v81.1c0,56.9,5.2,58.9,58.9,65.4v24.2H250.1v-24.2c51.7-6.5,56.2-8.5,56.2-65.4v-75.2c0-14.4-2.6-20.9-7.2-30.1
		c-19-38.6-43.2-82.4-82.4-151.1c-24.2-42.5-34-51-71.9-54.9v-24.2h191.6v24.2c-43.8,5.9-42.5,14.4-31.4,37.3
		c21.6,42.5,49.7,94.8,74.6,142.6c19.6-36.6,51-99.4,69.3-139.3c12.4-26.2,7.2-34.7-39.9-40.5v-24.2h152.4V311.6z"/>
	<path class="st1" d="M706.6,712.4v-22.2c27.5-3.9,29.4-6.5,29.4-51.7V526.7c0-46.4-22.9-60.8-45.8-60.8c-17,0-31.4,6.5-49,19.6
		v158.3c0,39.9,2.6,42.5,29.4,46.4v22.2H518.9v-22.2c34-5.9,37.9-6.5,37.9-49v-136c0-39.2-5.2-41.2-34-47.1v-20.9
		c37.9-4.6,83.1-13.1,119.7-24.8c-0.7,9.2-1.3,32-1.3,47.1c13.1-9.2,26.8-19,41.9-28.1c19.6-11.8,32-17,51-17
		c53,0,86.3,38.6,86.3,105.3v123.6c0,40.5,3.9,42.5,35.3,47.1v22.2H706.6z"/>
</g>
</svg>
