<?xml version="1.0" encoding="utf-8"?>
<!-- Generator: Adobe Illustrator 25.0.1, SVG Export Plug-In . SVG Version: 6.00 Build 0)  -->
<svg version="1.1" id="Слой_1" xmlns="http://www.w3.org/2000/svg" xmlns:xlink="http://www.w3.org/1999/xlink" x="0px" y="0px"
	 viewBox="0 0 1000 1000" style="enable-background:new 0 0 1000 1000;" xml:space="preserve">
<style type="text/css">
	.st0{fill:#7C3AF1;}
	.st1{fill:#FFFFFF;}
</style>
<path class="st0" d="M864.6,1000H135.4C60.6,1000,0,939.4,0,864.6V135.4C0,60.6,60.6,0,135.4,0h729.1C939.4,0,1000,60.6,1000,135.4
	v729.1C1000,939.4,939.4,1000,864.6,1000z"/>
<g>
	<path class="st1" d="M423.6,379.6H499l-119.8,265c-13.8,31.8-29.6,53.4-47.4,64.8c-17.8,11.5-44.6,17.2-80.4,17.2
		c-12.3,0-26.3-0.8-42-2.4v-53.8c12.9,0.9,25.3,1.4,37.3,1.4c18.5,0,32.5-2.4,42-7.1s17.3-13.8,23.6-27.4l4.7-10.8h-30.2
		L154.3,379.6h77.3l108,217.4L423.6,379.6z"/>
	<path class="st1" d="M728.2,373.9c38.7,0,68.1,9.9,88.2,29.7c20.1,19.8,30.2,48.9,30.2,87.2v135.8h-70.3V512.6
		c0-26.7-5.8-46.8-17.4-60.4c-11.6-13.5-30.3-20.3-56.1-20.3c-29.2,0-51.7,8.3-67.4,24.8c-15.7,16.5-23.6,39.1-23.6,67.7v102.3
		h-70.3V379.6h64.6V439C628.7,395.6,669.4,373.9,728.2,373.9z"/>
</g>
</svg>
